<svg width="16" height="14" viewBox="0 0 16 14" fill="none" id="arrow-submit-icon" xmlns="http://www.w3.org/2000/svg">
<path d="M15.7012 6.98828C15.7012 6.75391 15.6104 6.54883 15.4287 6.37305L9.94434 0.888672C9.84473 0.794922 9.74219 0.727539 9.63672 0.686523C9.53711 0.639648 9.43457 0.616211 9.3291 0.616211C9.09473 0.616211 8.89844 0.692383 8.74023 0.844727C8.58789 0.99707 8.51172 1.1875 8.51172 1.41602C8.51172 1.52734 8.53223 1.63574 8.57324 1.74121C8.61426 1.84668 8.66992 1.93457 8.74023 2.00488L10.6035 3.89453L13.8027 6.8125L14.04 6.3291L11.2539 6.16211L0.953125 6.16211C0.707031 6.16211 0.504883 6.24121 0.34668 6.39941C0.194336 6.55176 0.118164 6.74805 0.118164 6.98828C0.118164 7.23438 0.194336 7.43652 0.34668 7.59473C0.504883 7.74707 0.707031 7.82324 0.953125 7.82324L11.2539 7.82324L14.04 7.64746L13.8027 7.18164L10.6035 10.082L8.74023 11.9805C8.66992 12.0508 8.61426 12.1387 8.57324 12.2441C8.53223 12.3438 8.51172 12.4521 8.51172 12.5693C8.51172 12.7979 8.58789 12.9883 8.74023 13.1406C8.89844 13.293 9.09473 13.3691 9.3291 13.3691C9.5459 13.3691 9.74219 13.2813 9.91797 13.1055L15.4287 7.6123C15.6104 7.43652 15.7012 7.22852 15.7012 6.98828Z" fill="#9FA0A0"/>
</svg>
