<svg width="15" height="16" viewBox="0 0 15 16" fill="none" id="expand-all-icon" xmlns="http://www.w3.org/2000/svg">
<path d="M10.4004 7.56836C10.4004 8.40169 10.0944 9.03971 9.48242 9.48242C8.87695 9.91862 8.12826 10.1367 7.23633 10.1367C6.61133 10.1367 6.02865 10 5.48828 9.72656C4.64193 9.30339 4.21875 8.61979 4.21875 7.67578L3.10547 7.8125C3.10547 8.91927 3.50586 9.81771 4.30664 10.5078C5.10742 11.1914 6.10352 11.5332 7.29492 11.5332C8.57096 11.5332 9.5931 11.1523 10.3613 10.3906C11.1296 9.62891 11.5137 8.71094 11.5137 7.63672L10.4004 7.56836ZM12.4316 2.74414C13.8379 4.14388 14.541 5.83659 14.541 7.82227C14.541 9.80794 13.8379 11.5007 12.4316 12.9004C11.0254 14.3066 9.32943 15.0098 7.34375 15.0098C5.36458 15.0098 3.67839 14.3066 2.28516 12.9004C0.891927 11.5007 0.195312 9.80794 0.195312 7.82227C0.195312 5.83659 0.891927 4.14388 2.28516 2.74414C3.67839 1.3444 5.36458 0.644531 7.34375 0.644531C9.32943 0.644531 11.0254 1.3444 12.4316 2.74414ZM9.31641 6.67969C9.65495 6.67969 9.9349 6.56901 10.1562 6.34766C10.3776 6.1263 10.4883 5.84961 10.4883 5.51758C10.4883 5.17904 10.3776 4.89909 10.1562 4.67773C9.9349 4.45638 9.65495 4.3457 9.31641 4.3457C8.98437 4.3457 8.70768 4.45638 8.48633 4.67773C8.27148 4.89909 8.16406 5.17904 8.16406 5.51758C8.16406 5.84961 8.27148 6.1263 8.48633 6.34766C8.70768 6.56901 8.98437 6.67969 9.31641 6.67969ZM5.41016 6.67969C5.7487 6.67969 6.02865 6.56901 6.25 6.34766C6.47135 6.1263 6.58203 5.84961 6.58203 5.51758C6.58203 5.17904 6.47135 4.89909 6.25 4.67773C6.02865 4.45638 5.7487 4.3457 5.41016 4.3457C5.07812 4.3457 4.80143 4.45638 4.58008 4.67773C4.36523 4.89909 4.25781 5.17904 4.25781 5.51758C4.25781 5.84961 4.36523 6.1263 4.58008 6.34766C4.80143 6.56901 5.07812 6.67969 5.41016 6.67969Z" fill="black"/>
</svg>
