<svg width="11" height="15" viewBox="0 0 11 15" id="padlock-icon" fill="currentColor" xmlns="http://www.w3.org/2000/svg">
<path d="M1.61719 14.8203L8.8125 14.8203C9.32292 14.8203 9.70052 14.6901 9.94531 14.4297C10.1953 14.1745 10.3203 13.7734 10.3203 13.2266V7.67188C10.3203 7.125 10.1953 6.72396 9.94531 6.46875C9.70052 6.20833 9.32292 6.07813 8.8125 6.07813L1.73437 6.07812C1.22917 6.07812 0.833333 6.20833 0.546875 6.46875C0.260417 6.72917 0.117187 7.13021 0.117187 7.67188L0.117187 13.2266C0.117187 13.7734 0.242187 14.1745 0.492187 14.4297C0.742187 14.6901 1.11719 14.8203 1.61719 14.8203ZM1.35937 6.625L2.85156 6.625L2.85156 4.14844C2.85156 3.58594 2.95833 3.11198 3.17187 2.72656C3.38542 2.33594 3.67187 2.04167 4.03125 1.84375C4.39062 1.64063 4.78646 1.53906 5.21875 1.53906C5.65104 1.53906 6.04427 1.64063 6.39844 1.84375C6.75781 2.04167 7.04427 2.33594 7.25781 2.72656C7.47656 3.11198 7.58594 3.58594 7.58594 4.14844V6.625H9.07812V4.28125C9.07812 3.57813 8.97135 2.96615 8.75781 2.44531C8.54427 1.91927 8.2526 1.48438 7.88281 1.14063C7.51823 0.791667 7.10677 0.533854 6.64844 0.367188C6.1901 0.195313 5.71354 0.109375 5.21875 0.109375C4.72396 0.109375 4.2474 0.195313 3.78906 0.367188C3.33073 0.533854 2.91667 0.791667 2.54687 1.14063C2.18229 1.48438 1.89323 1.91927 1.67969 2.44531C1.46615 2.96615 1.35937 3.57813 1.35937 4.28125L1.35937 6.625Z" fill="black"/>
</svg>
